<svg xmlns="http://www.w3.org/2000/svg" width="960" height="540" viewBox="0 0 960 540" role="img" aria-labelledby="title desc">
  <title id="title">Инструкция установки Flash Kanji PWA</title>
  <desc id="desc">Откройте сайт, нажмите установить PWA, закрепите приложение.</desc>
  <defs>
    <linearGradient id="bg" x1="0" x2="1" y1="0" y2="1">
      <stop offset="0" stop-color="#10111b"/>
      <stop offset="1" stop-color="#08080d"/>
    </linearGradient>
    <linearGradient id="gold" x1="0" x2="1">
      <stop offset="0" stop-color="#ffdf6e"/>
      <stop offset="1" stop-color="#ff9b54"/>
    </linearGradient>
  </defs>
  <rect width="960" height="540" rx="34" fill="url(#bg)"/>
  <path d="M132 92h696a36 36 0 0 1 36 36v284a36 36 0 0 1-36 36H132a36 36 0 0 1-36-36V128a36 36 0 0 1 36-36z" fill="#171824" stroke="#fff" stroke-opacity=".16" stroke-width="3"/>
  <path d="M96 146h768" stroke="#fff" stroke-opacity=".14" stroke-width="3"/>
  <circle cx="135" cy="119" r="10" fill="#ff315f"/>
  <circle cx="166" cy="119" r="10" fill="#ffdf6e"/>
  <circle cx="197" cy="119" r="10" fill="#58d68d"/>
  <rect x="248" y="108" width="420" height="24" rx="12" fill="#0d0e16" stroke="#fff" stroke-opacity=".10"/>
  <text x="276" y="126" fill="#c8bfca" font-family="Arial,sans-serif" font-size="15">flashkanji.space</text>
  <g transform="translate(142 195)" font-family="Arial,sans-serif">
    <rect width="190" height="166" rx="24" fill="#0d0e16" stroke="#ff315f" stroke-opacity=".42"/>
    <text x="95" y="72" text-anchor="middle" fill="#ffdf6e" font-family="Georgia,serif" font-size="54" font-weight="700">月</text>
    <text x="95" y="118" text-anchor="middle" fill="#fff" font-size="20" font-weight="900">Открыть сайт</text>
  </g>
  <path d="M358 278h82" stroke="#ffdf6e" stroke-width="7" stroke-linecap="round"/>
  <path d="M424 254l28 24-28 24" fill="none" stroke="#ffdf6e" stroke-width="7" stroke-linecap="round" stroke-linejoin="round"/>
  <g transform="translate(478 195)" font-family="Arial,sans-serif">
    <rect width="190" height="166" rx="24" fill="#0d0e16" stroke="#ff315f" stroke-opacity=".42"/>
    <rect x="42" y="58" width="106" height="42" rx="14" fill="#ff315f"/>
    <text x="95" y="86" text-anchor="middle" fill="#fff" font-size="18" font-weight="900">Install</text>
    <text x="95" y="124" text-anchor="middle" fill="#fff" font-size="20" font-weight="900">Нажать PWA</text>
  </g>
  <path d="M694 278h82" stroke="#ffdf6e" stroke-width="7" stroke-linecap="round"/>
  <path d="M760 254l28 24-28 24" fill="none" stroke="#ffdf6e" stroke-width="7" stroke-linecap="round" stroke-linejoin="round"/>
  <g transform="translate(806 195)" font-family="Arial,sans-serif">
    <rect width="110" height="166" rx="24" fill="#0d0e16" stroke="#ff315f" stroke-opacity=".42"/>
    <rect x="30" y="36" width="50" height="50" rx="14" fill="url(#gold)"/>
    <text x="55" y="68" text-anchor="middle" fill="#08080d" font-family="Georgia,serif" font-size="28" font-weight="900">漢</text>
    <text x="55" y="119" text-anchor="middle" fill="#fff" font-size="17" font-weight="900">Готово</text>
  </g>
  <text x="480" y="418" text-anchor="middle" fill="#c8bfca" font-family="Arial,sans-serif" font-size="22">PWA открывается как приложение и обновляется с сайта</text>
</svg>
