<svg xmlns="http://www.w3.org/2000/svg" viewBox="0 0 1280 720" role="img" aria-label="Golden Glow">
  <rect width="1280" height="720" fill="#090910"/>
  <radialGradient id="g" cx=".5" cy=".32" r=".56"><stop offset="0" stop-color="#f6c64f" stop-opacity=".4"/><stop offset="1" stop-color="#f6c64f" stop-opacity="0"/></radialGradient>
  <rect width="1280" height="720" fill="url(#g)"/>
  <circle cx="50" cy="60" r="3" fill="#f6c64f" opacity=".35"/><circle cx="121" cy="173" r="5" fill="#f6c64f" opacity=".47"/><circle cx="192" cy="286" r="7" fill="#f6c64f" opacity=".59"/><circle cx="263" cy="399" r="9" fill="#f6c64f" opacity=".71"/><circle cx="334" cy="512" r="11" fill="#f6c64f" opacity=".35"/><circle cx="405" cy="625" r="3" fill="#f6c64f" opacity=".47"/><circle cx="476" cy="128" r="5" fill="#f6c64f" opacity=".59"/><circle cx="547" cy="241" r="7" fill="#f6c64f" opacity=".71"/><circle cx="618" cy="354" r="9" fill="#f6c64f" opacity=".35"/><circle cx="689" cy="467" r="11" fill="#f6c64f" opacity=".47"/><circle cx="760" cy="580" r="3" fill="#f6c64f" opacity=".59"/><circle cx="831" cy="83" r="5" fill="#f6c64f" opacity=".71"/><circle cx="902" cy="196" r="7" fill="#f6c64f" opacity=".35"/><circle cx="973" cy="309" r="9" fill="#f6c64f" opacity=".47"/><circle cx="1044" cy="422" r="11" fill="#f6c64f" opacity=".59"/><circle cx="1115" cy="535" r="3" fill="#f6c64f" opacity=".71"/><circle cx="1186" cy="648" r="5" fill="#f6c64f" opacity=".35"/><circle cx="77" cy="151" r="7" fill="#f6c64f" opacity=".47"/>
  <circle cx="640" cy="260" r="220" fill="#f6c64f" opacity=".18"/>
  <text x="64" y="660" font-family="Inter, Arial" font-size="46" font-weight="800" fill="#f7f4ee">Golden Glow</text>
</svg>