<svg xmlns="http://www.w3.org/2000/svg" viewBox="0 0 1280 720" role="img" aria-label="Cyber HUD">
  <rect width="1280" height="720" fill="#090910"/>
  <radialGradient id="g" cx=".5" cy=".32" r=".56"><stop offset="0" stop-color="#43d6ff" stop-opacity=".4"/><stop offset="1" stop-color="#43d6ff" stop-opacity="0"/></radialGradient>
  <rect width="1280" height="720" fill="url(#g)"/>
  <circle cx="50" cy="60" r="3" fill="#43d6ff" opacity=".35"/><circle cx="121" cy="173" r="5" fill="#43d6ff" opacity=".47"/><circle cx="192" cy="286" r="7" fill="#43d6ff" opacity=".59"/><circle cx="263" cy="399" r="9" fill="#43d6ff" opacity=".71"/><circle cx="334" cy="512" r="11" fill="#43d6ff" opacity=".35"/><circle cx="405" cy="625" r="3" fill="#43d6ff" opacity=".47"/><circle cx="476" cy="128" r="5" fill="#43d6ff" opacity=".59"/><circle cx="547" cy="241" r="7" fill="#43d6ff" opacity=".71"/><circle cx="618" cy="354" r="9" fill="#43d6ff" opacity=".35"/><circle cx="689" cy="467" r="11" fill="#43d6ff" opacity=".47"/><circle cx="760" cy="580" r="3" fill="#43d6ff" opacity=".59"/><circle cx="831" cy="83" r="5" fill="#43d6ff" opacity=".71"/><circle cx="902" cy="196" r="7" fill="#43d6ff" opacity=".35"/><circle cx="973" cy="309" r="9" fill="#43d6ff" opacity=".47"/><circle cx="1044" cy="422" r="11" fill="#43d6ff" opacity=".59"/><circle cx="1115" cy="535" r="3" fill="#43d6ff" opacity=".71"/><circle cx="1186" cy="648" r="5" fill="#43d6ff" opacity=".35"/><circle cx="77" cy="151" r="7" fill="#43d6ff" opacity=".47"/>
  <path d="M110 120 H430 V180 M850 120 H1160 V190 M160 560 H480 M800 560 H1130" stroke="#43d6ff" stroke-width="8" opacity=".58" fill="none"/><text x="128" y="168" font-size="34" font-family="monospace" fill="#43d6ff" opacity=".72">N1 SYS</text>
  <text x="64" y="660" font-family="Inter, Arial" font-size="46" font-weight="800" fill="#f7f4ee">Cyber HUD</text>
</svg>